<svg width="32" height="32" viewBox="0 0 32 32" fill="none" xmlns="http://www.w3.org/2000/svg">
<path fill-rule="evenodd" clip-rule="evenodd" d="M3 3C3 1.34315 4.34315 0 6 0H22V6.49602C22 6.94147 22.5386 7.16455 22.8536 6.84957L24 5.70312L25.1464 6.84957C25.4614 7.16455 26 6.94147 26 6.49602V0C27.6569 0 29 1.34315 29 3V29C29 30.6569 27.6569 32 26 32H6C4.34315 32 3 30.6569 3 29V3ZM23.7336 16.0988L23.712 16.0413L21.5343 10.3609C21.4902 10.2494 21.4118 10.1548 21.3104 10.0908C21.2347 10.0423 21.1487 10.0123 21.0593 10.003C20.97 9.99381 20.8797 10.0056 20.7957 10.0376C20.7117 10.0696 20.6364 10.1207 20.5757 10.1871C20.5151 10.2534 20.4708 10.333 20.4465 10.4195L18.9766 14.9196H13.024L11.554 10.4195C11.5295 10.3331 11.4851 10.2536 11.4245 10.1875C11.3638 10.1213 11.2885 10.0702 11.2046 10.0383C11.1207 10.0063 11.0305 9.99444 10.9412 10.0036C10.8518 10.0127 10.7659 10.0425 10.6902 10.0908C10.5887 10.1548 10.5103 10.2494 10.4662 10.3609L8.28958 16.0423L8.26698 16.0988C7.95361 16.9178 7.915 17.8165 8.15698 18.6593C8.39896 19.5022 8.90841 20.2435 9.60851 20.7715L9.61673 20.7777L9.63522 20.792L12.9479 23.2748L14.5915 24.5166L15.5899 25.2716C15.707 25.3601 15.8499 25.408 15.9967 25.408C16.1435 25.408 16.2863 25.3601 16.4034 25.2716L17.4019 24.5166L19.0454 23.2748L22.3818 20.7777L22.391 20.7705C23.0911 20.2427 23.6006 19.5016 23.8427 18.6589C24.0849 17.8163 24.0466 16.9178 23.7336 16.0988Z" fill="#33A06F"/>
</svg>
